<svg xmlns="http://www.w3.org/2000/svg" width="66" height="66" viewBox="0 0 24 24" class="duoicon duoicon-settings" style="color: rgb(2, 40, 192);"><path fill="currentColor" fill-rule="evenodd" d="M9.965 2.809a1.51 1.51 0 0 0-1.401-.203 10.007 10.007 0 0 0-2.982 1.725 1.51 1.51 0 0 0-.524 1.313c.075.753-.058 1.48-.42 2.106-.361.627-.925 1.106-1.615 1.417-.458.203-.786.62-.875 1.113a10.035 10.035 0 0 0 0 3.44c.093.537.46.926.875 1.114.69.31 1.254.79 1.616 1.416.361.627.494 1.353.419 2.106-.045.452.107.964.524 1.313a10.007 10.007 0 0 0 2.982 1.725c.471.169.996.093 1.4-.203.615-.442 1.312-.691 2.036-.691s1.42.249 2.035.691c.37.266.89.39 1.401.203a10.007 10.007 0 0 0 2.982-1.725c.417-.349.57-.86.524-1.313-.075-.753.057-1.48.42-2.106.361-.627.925-1.105 1.615-1.416.414-.188.782-.577.875-1.114a10.085 10.085 0 0 0 0-3.44 1.512 1.512 0 0 0-.875-1.113c-.69-.311-1.254-.79-1.616-1.417-.362-.626-.494-1.353-.419-2.106a1.513 1.513 0 0 0-.524-1.313 10.007 10.007 0 0 0-2.982-1.725 1.514 1.514 0 0 0-1.4.203C13.42 3.25 12.723 3.5 12 3.5c-.723 0-1.42-.249-2.035-.691Z" class="duoicon-secondary-layer" opacity=".3"></path><path fill="currentColor" fill-rule="evenodd" d="M9 12c0-2.309 2.5-3.753 4.5-2.598A3 3 0 0 1 15 12c0 2.309-2.5 3.753-4.5 2.598A3 3 0 0 1 9 12Z" class="duoicon-primary-layer"></path></svg>